<?xml version="1.0" encoding="UTF-8"?>
<svg width="24px" height="24px" viewBox="0 0 24 24" version="1.1" xmlns="http://www.w3.org/2000/svg" xmlns:xlink="http://www.w3.org/1999/xlink">
    <!-- Generator: sketchtool 59 (101010) - https://sketch.com -->
    <title>39AEB628-7CDE-493E-AC10-109AE718E243</title>
    <desc>Created with sketchtool.</desc>
    <defs>
        <path d="M18.1541722,2 C19.4914503,2 19.9763797,2.13923842 20.4652686,2.40069906 C20.9541574,2.66215969 21.3378403,3.04584256 21.5993009,3.53473144 C21.8607616,4.02362033 22,4.50854969 22,5.8458278 L22,18.1541722 C22,19.4914503 21.8607616,19.9763797 21.5993009,20.4652686 C21.3378403,20.9541574 20.9541574,21.3378403 20.4652686,21.5993009 C19.9763797,21.8607616 19.4914503,22 18.1541722,22 L5.8458278,22 C4.50854969,22 4.02362033,21.8607616 3.53473144,21.5993009 C3.04584256,21.3378403 2.66215969,20.9541574 2.40069906,20.4652686 C2.13923842,19.9763797 2,19.4914503 2,18.1541722 L2,5.8458278 C2,4.50854969 2.13923842,4.02362033 2.40069906,3.53473144 C2.66215969,3.04584256 3.04584256,2.66215969 3.53473144,2.40069906 C4.02362033,2.13923842 4.50854969,2 5.8458278,2 L18.1541722,2 Z M16.7283562,8.79289322 C16.3378319,8.40236893 15.704667,8.40236893 15.3141427,8.79289322 L15.3141427,8.79289322 L10.0212495,14.0857864 L8.20710678,12.2716438 C7.81658249,11.8811195 7.18341751,11.8811195 6.79289322,12.2716438 C6.40236893,12.6621681 6.40236893,13.295333 6.79289322,13.6858573 L6.79289322,13.6858573 L9.31414268,16.2071068 C9.70466697,16.5976311 10.3378319,16.5976311 10.7283562,16.2071068 L10.7283562,16.2071068 L16.7283562,10.2071068 C17.1188805,9.81658249 17.1188805,9.18341751 16.7283562,8.79289322 Z" id="path-1"></path>
    </defs>
    <g id="Symbols" stroke="none" stroke-width="1" fill="none" fill-rule="evenodd">
        <g id="Input-/Checkbox-/-Default">
            <mask id="mask-2" fill="white">
                <use xlink:href="#path-1"></use>
            </mask>
            <use id="🎨-Checkbox-Color" fill="#00A9EC" xlink:href="#path-1"></use>
        </g>
    </g>
</svg>